<svg width="200" height="200" viewBox="0 0 200 200" fill="none" xmlns="http://www.w3.org/2000/svg">
  <defs>
    <linearGradient id="grad1" x1="0%" y1="0%" x2="100%" y2="0%">
      <stop offset="0%" style="stop-color:#007CF0;stop-opacity:1" />
      <stop offset="100%" style="stop-color:#6B49F7;stop-opacity:1" />
    </linearGradient>
    <linearGradient id="grad2" x1="0%" y1="0%" x2="100%" y2="0%">
      <stop offset="0%" style="stop-color:#6B49F7;stop-opacity:1" />
      <stop offset="100%" style="stop-color:#F5A623;stop-opacity:1" />
    </linearGradient>
    <linearGradient id="gradText" x1="0%" y1="0%" x2="100%" y2="0%">
      <stop offset="0%" style="stop-color:#007CF0;stop-opacity:1" />
      <stop offset="50%" style="stop-color:#9013FE;stop-opacity:1" />
      <stop offset="100%" style="stop-color:#F5A623;stop-opacity:1" />
    </linearGradient>
  </defs>
  <rect width="200" height="200" fill="#FDF8F0"/>
  <path d="M40 60 C25 60 25 60 25 75 L 25 155 C25 165 25 165 35 165 L 165 165 C175 165 175 165 175 155 L 175 75 C175 60 175 60 160 60 L 120 60 L 120 50 C120 35 120 35 105 35 L 95 35 C80 35 80 35 80 50 L 80 60 L 40 60 Z" fill="url(#grad1)"/>
  <rect x="25" y="125" width="150" height="40" rx="10" ry="10" fill="url(#grad2)"/>
  <text x="50%" y="58%" dominant-baseline="middle" text-anchor="middle" font-family="Arial, Helvetica, sans-serif" font-size="36" font-weight="bold" fill="url(#gradText)">
    All2ools
  </text>
</svg>
